STARTFONT 2.1
COMMENT
COMMENT Converted from OpenType font "regular.ttf" by "otf2bdf 3.0".
COMMENT
FONT -FreeType-Roboto Mono-Medium-R-Normal--28-200-100-100-P-119-ISO10646-1
SIZE 20 100 100
FONTBOUNDINGBOX 16 29 0 -6
STARTPROPERTIES 19
FOUNDRY "FreeType"
FAMILY_NAME "Roboto Mono"
WEIGHT_NAME "Medium"
SLANT "R"
SETWIDTH_NAME "Normal"
ADD_STYLE_NAME ""
PIXEL_SIZE 28
POINT_SIZE 200
RESOLUTION_X 100
RESOLUTION_Y 100
SPACING "P"
AVERAGE_WIDTH 119
CHARSET_REGISTRY "ISO10646"
CHARSET_ENCODING "1"
FONT_ASCENT 29
FONT_DESCENT 7
COPYRIGHT "Copyright 2015 The Roboto Mono Project Authors (https://github.com/googlefonts/robotomono)"
_OTF_FONTFILE "regular.ttf"
_OTF_PSNAME "RobotoMono-Regular"
ENDPROPERTIES
CHARS 96
STARTCHAR 000D
ENCODING 13
SWIDTH 576 0
DWIDTH 16 0
BBX 0 0 0 0
BITMAP
ENDCHAR
STARTCHAR 0020
ENCODING 32
SWIDTH 576 0
DWIDTH 16 0
BBX 0 0 0 0
BITMAP
ENDCHAR
STARTCHAR 0021
ENCODING 33
SWIDTH 576 0
DWIDTH 16 0
BBX 3 20 7 0
BITMAP
C0
C0
C0
C0
C0
C0
C0
C0
C0
C0
C0
C0
C0
C0
00
00
00
C0
E0
C0
ENDCHAR
STARTCHAR 0022
ENCODING 34
SWIDTH 576 0
DWIDTH 16 0
BBX 7 7 5 14
BITMAP
C6
C6
C6
C6
C6
C4
C4
ENDCHAR
STARTCHAR 0023
ENCODING 35
SWIDTH 576 0
DWIDTH 16 0
BBX 15 20 1 0
BITMAP
0318
0318
0618
0618
0610
0630
7FFE
7FFE
0C30
0C20
0C60
0C60
1860
FFFC
1860
18C0
18C0
30C0
30C0
30C0
ENDCHAR
STARTCHAR 0024
ENCODING 36
SWIDTH 576 0
DWIDTH 16 0
BBX 13 26 2 -3
BITMAP
0300
0300
0300
0F80
3FE0
38F0
7070
7030
7038
7000
7000
3C00
1F80
0FE0
01F0
0070
0038
E038
E038
6038
7070
3FF0
1FC0
0300
0300
0300
ENDCHAR
STARTCHAR 0025
ENCODING 37
SWIDTH 576 0
DWIDTH 16 0
BBX 15 20 1 0
BITMAP
7800
FC00
C600
8630
8620
C660
CEC0
7CC0
3180
0180
0300
0300
067C
06CE
0CC6
08C6
18C6
00C6
00EE
007C
ENDCHAR
STARTCHAR 0026
ENCODING 38
SWIDTH 576 0
DWIDTH 16 0
BBX 15 20 1 0
BITMAP
0780
1FC0
1CE0
3860
3860
3860
38E0
1DC0
0F00
0E00
1F00
3B8E
718E
61CC
E0EC
E07C
6038
7078
3FFC
1FCE
ENDCHAR
STARTCHAR 0027
ENCODING 39
SWIDTH 576 0
DWIDTH 16 0
BBX 2 7 7 14
BITMAP
C0
C0
C0
C0
C0
C0
C0
ENDCHAR
STARTCHAR 0028
ENCODING 40
SWIDTH 576 0
DWIDTH 16 0
BBX 7 28 5 -6
BITMAP
06
0E
1C
18
30
30
70
60
60
E0
E0
C0
C0
C0
C0
C0
C0
E0
E0
60
60
70
30
30
18
1C
0E
06
ENDCHAR
STARTCHAR 0029
ENCODING 41
SWIDTH 576 0
DWIDTH 16 0
BBX 7 28 5 -6
BITMAP
80
C0
60
70
30
38
18
1C
1C
0C
0C
0C
0C
0E
0E
0C
0C
0C
0C
1C
1C
18
38
30
70
60
C0
80
ENDCHAR
STARTCHAR 002A
ENCODING 42
SWIDTH 576 0
DWIDTH 16 0
BBX 13 14 2 6
BITMAP
0300
0300
0300
0300
4318
FB78
7FF8
0780
0780
0D80
18C0
38E0
3060
0040
ENDCHAR
STARTCHAR 002B
ENCODING 43
SWIDTH 576 0
DWIDTH 16 0
BBX 13 14 2 2
BITMAP
0700
0700
0700
0700
0700
FFF8
FFF8
FFF8
0700
0700
0700
0700
0700
0700
ENDCHAR
STARTCHAR 002C
ENCODING 44
SWIDTH 576 0
DWIDTH 16 0
BBX 4 7 5 -5
BITMAP
70
70
70
70
60
E0
C0
ENDCHAR
STARTCHAR 002D
ENCODING 45
SWIDTH 576 0
DWIDTH 16 0
BBX 10 2 3 8
BITMAP
FFC0
FFC0
ENDCHAR
STARTCHAR 002E
ENCODING 46
SWIDTH 576 0
DWIDTH 16 0
BBX 4 4 7 0
BITMAP
40
F0
F0
E0
ENDCHAR
STARTCHAR 002F
ENCODING 47
SWIDTH 576 0
DWIDTH 16 0
BBX 11 22 3 -2
BITMAP
0060
00C0
00C0
01C0
0180
0180
0380
0300
0700
0600
0600
0E00
0C00
0C00
1800
1800
3800
3000
3000
7000
6000
E000
ENDCHAR
STARTCHAR 0030
ENCODING 48
SWIDTH 576 0
DWIDTH 16 0
BBX 13 20 2 0
BITMAP
0F80
3FE0
70E0
6070
E030
E038
E038
C0F8
C1F8
C3B8
CF38
DC38
F838
F038
E038
E030
6030
7070
3FE0
1FC0
ENDCHAR
STARTCHAR 0031
ENCODING 49
SWIDTH 576 0
DWIDTH 16 0
BBX 8 20 3 0
BITMAP
01
0F
7F
FF
C7
07
07
07
07
07
07
07
07
07
07
07
07
07
07
07
ENDCHAR
STARTCHAR 0032
ENCODING 50
SWIDTH 576 0
DWIDTH 16 0
BBX 13 20 1 0
BITMAP
0F80
3FE0
78F0
6070
E030
E038
0030
0030
0070
00E0
01C0
0180
0380
0700
0E00
1C00
3800
7000
7FF8
7FF8
ENDCHAR
STARTCHAR 0033
ENCODING 51
SWIDTH 576 0
DWIDTH 16 0
BBX 13 20 1 0
BITMAP
0F80
3FE0
7870
6030
6030
0038
0030
0070
00E0
0FC0
0FE0
0070
0030
0038
0038
E038
6030
7070
3FE0
1FC0
ENDCHAR
STARTCHAR 0034
ENCODING 52
SWIDTH 576 0
DWIDTH 16 0
BBX 14 20 1 0
BITMAP
0070
00F0
01F0
01F0
03F0
0770
0670
0E70
0C70
1870
3870
3070
6070
FFFC
FFFC
0070
0070
0070
0070
0070
ENDCHAR
STARTCHAR 0035
ENCODING 53
SWIDTH 576 0
DWIDTH 16 0
BBX 12 20 3 0
BITMAP
7FE0
7FE0
7FE0
6000
6000
6000
6000
6F00
FFC0
F3E0
00E0
0070
0070
0070
0070
C070
C070
E0E0
7FC0
3F80
ENDCHAR
STARTCHAR 0036
ENCODING 54
SWIDTH 576 0
DWIDTH 16 0
BBX 12 20 2 0
BITMAP
01C0
0FC0
1F80
3800
7000
6000
6000
E780
FFE0
F8E0
E070
E030
C030
C030
E030
E030
6070
70E0
3FE0
1F80
ENDCHAR
STARTCHAR 0037
ENCODING 55
SWIDTH 576 0
DWIDTH 16 0
BBX 13 20 2 0
BITMAP
FFF8
FFF8
0038
0030
0070
0060
00E0
00C0
01C0
0180
0380
0300
0300
0700
0600
0E00
0C00
1C00
1800
3800
ENDCHAR
STARTCHAR 0038
ENCODING 56
SWIDTH 576 0
DWIDTH 16 0
BBX 13 20 2 0
BITMAP
0F80
3FE0
38F0
7070
6030
6038
7030
7070
38E0
1FC0
1FE0
7070
6030
6038
E038
E038
6038
7070
3FE0
1FC0
ENDCHAR
STARTCHAR 0039
ENCODING 57
SWIDTH 576 0
DWIDTH 16 0
BBX 12 20 2 0
BITMAP
0F80
3FC0
70E0
6070
E070
E030
C030
E030
E030
E070
70F0
3FF0
1FB0
0030
0070
0060
00E0
07C0
1F80
1E00
ENDCHAR
STARTCHAR 003A
ENCODING 58
SWIDTH 576 0
DWIDTH 16 0
BBX 4 15 7 0
BITMAP
70
F0
70
00
00
00
00
00
00
00
00
20
70
F0
70
ENDCHAR
STARTCHAR 003B
ENCODING 59
SWIDTH 576 0
DWIDTH 16 0
BBX 4 19 7 -5
BITMAP
70
F0
70
00
00
00
00
00
00
00
00
00
70
70
70
60
60
E0
C0
ENDCHAR
STARTCHAR 003C
ENCODING 60
SWIDTH 576 0
DWIDTH 16 0
BBX 12 12 2 3
BITMAP
0010
0070
03F0
0FC0
3E00
F800
F000
7C00
1F80
07E0
00F0
0030
ENDCHAR
STARTCHAR 003D
ENCODING 61
SWIDTH 576 0
DWIDTH 16 0
BBX 12 8 2 5
BITMAP
FFF0
FFF0
0000
0000
0000
0000
FFF0
FFF0
ENDCHAR
STARTCHAR 003E
ENCODING 62
SWIDTH 576 0
DWIDTH 16 0
BBX 12 12 2 3
BITMAP
8000
F000
FC00
1F00
07E0
00F0
0070
03F0
0F80
7E00
F800
C000
ENDCHAR
STARTCHAR 003F
ENCODING 63
SWIDTH 576 0
DWIDTH 16 0
BBX 11 20 3 0
BITMAP
1F00
7FC0
F1E0
C0E0
C060
0060
00E0
00E0
01C0
0380
0700
0E00
0E00
0C00
0000
0000
0000
0C00
0E00
0E00
ENDCHAR
STARTCHAR 0040
ENCODING 64
SWIDTH 576 0
DWIDTH 16 0
BBX 15 20 1 0
BITMAP
03C0
0FF0
1C38
300C
608C
63E4
4666
CC66
CC66
CC46
C846
C844
C844
CCCC
CF78
4230
6000
3000
3FE0
0FC0
ENDCHAR
STARTCHAR 0041
ENCODING 65
SWIDTH 576 0
DWIDTH 16 0
BBX 15 20 1 0
BITMAP
0380
0380
0380
07C0
06C0
06C0
0EE0
0C60
0C60
1C70
1C70
1830
1830
3FF8
3FF8
3018
701C
600C
600C
E00E
ENDCHAR
STARTCHAR 0042
ENCODING 66
SWIDTH 576 0
DWIDTH 16 0
BBX 13 20 2 0
BITMAP
FF00
FFE0
E1F0
E070
E038
E038
E038
E070
E1E0
FFC0
FFE0
E070
E038
E018
E018
E038
E038
E0F0
FFE0
FF80
ENDCHAR
STARTCHAR 0043
ENCODING 67
SWIDTH 576 0
DWIDTH 16 0
BBX 14 20 1 0
BITMAP
07C0
1FF0
3C78
3018
701C
601C
6000
6000
E000
E000
E000
E000
E000
6000
600C
701C
3018
3838
1FF0
0FE0
ENDCHAR
STARTCHAR 0044
ENCODING 68
SWIDTH 576 0
DWIDTH 16 0
BBX 13 20 2 0
BITMAP
FE00
FF80
E3E0
E0F0
E070
E038
E038
E018
E018
E018
E018
E018
E018
E018
E038
E030
E070
E1E0
FFC0
FF00
ENDCHAR
STARTCHAR 0045
ENCODING 69
SWIDTH 576 0
DWIDTH 16 0
BBX 13 20 2 0
BITMAP
FFF0
FFF0
E000
E000
E000
E000
E000
E000
E000
FFE0
FFE0
E000
E000
E000
E000
E000
E000
E000
FFF8
FFF8
ENDCHAR
STARTCHAR 0046
ENCODING 70
SWIDTH 576 0
DWIDTH 16 0
BBX 12 20 3 0
BITMAP
FFF0
FFF0
C000
C000
C000
C000
C000
C000
C000
FFC0
FFC0
C000
C000
C000
C000
C000
C000
C000
C000
C000
ENDCHAR
STARTCHAR 0047
ENCODING 71
SWIDTH 576 0
DWIDTH 16 0
BBX 14 20 1 0
BITMAP
07C0
1FF0
3C78
3818
701C
601C
6000
E000
E000
E000
E0FC
E0FC
E00C
600C
600C
700C
300C
3C1C
1FF8
07E0
ENDCHAR
STARTCHAR 0048
ENCODING 72
SWIDTH 576 0
DWIDTH 16 0
BBX 13 20 2 0
BITMAP
C038
C038
C038
C038
C038
C038
C038
C038
C038
FFF8
FFF8
C038
C038
C038
C038
C038
C038
C038
C038
C038
ENDCHAR
STARTCHAR 0049
ENCODING 73
SWIDTH 576 0
DWIDTH 16 0
BBX 12 20 2 0
BITMAP
FFF0
FFF0
0700
0700
0700
0700
0700
0700
0700
0700
0700
0700
0700
0700
0700
0700
0700
0700
FFF0
FFF0
ENDCHAR
STARTCHAR 004A
ENCODING 74
SWIDTH 576 0
DWIDTH 16 0
BBX 13 20 1 0
BITMAP
0018
0018
0018
0018
0018
0018
0018
0018
0018
0018
0018
0018
0018
0018
E018
6038
7038
7870
3FE0
1FC0
ENDCHAR
STARTCHAR 004B
ENCODING 75
SWIDTH 576 0
DWIDTH 16 0
BBX 14 20 2 0
BITMAP
E038
E038
E070
E0E0
E1C0
E380
E380
E700
EE00
FE00
FF00
FB00
F380
E1C0
E1C0
E0E0
E070
E070
E038
E01C
ENDCHAR
STARTCHAR 004C
ENCODING 76
SWIDTH 576 0
DWIDTH 16 0
BBX 12 20 3 0
BITMAP
C000
C000
C000
C000
C000
C000
C000
C000
C000
C000
C000
C000
C000
C000
C000
C000
C000
C000
FFF0
FFF0
ENDCHAR
STARTCHAR 004D
ENCODING 77
SWIDTH 576 0
DWIDTH 16 0
BBX 13 20 2 0
BITMAP
E038
F078
F078
F078
F8D8
D8D8
D8D8
D998
CD98
CD98
CF18
C738
C738
C638
C238
C038
C038
C038
C038
C038
ENDCHAR
STARTCHAR 004E
ENCODING 78
SWIDTH 576 0
DWIDTH 16 0
BBX 13 20 2 0
BITMAP
E038
E038
F038
F038
F838
F838
FC38
EC38
EE38
E638
C738
C338
C3B8
C1B8
C1F8
C0F8
C0F8
C078
C078
C038
ENDCHAR
STARTCHAR 004F
ENCODING 79
SWIDTH 576 0
DWIDTH 16 0
BBX 14 20 1 0
BITMAP
07C0
1FE0
3C70
3838
7018
601C
601C
600C
E00C
E00C
E00C
E00C
E00C
601C
601C
7018
3038
3878
1FF0
0FC0
ENDCHAR
STARTCHAR 0050
ENCODING 80
SWIDTH 576 0
DWIDTH 16 0
BBX 13 20 3 0
BITMAP
FF00
FFC0
C1E0
C070
C030
C030
C038
C030
C070
C0F0
FFE0
FF80
C000
C000
C000
C000
C000
C000
C000
C000
ENDCHAR
STARTCHAR 0051
ENCODING 81
SWIDTH 576 0
DWIDTH 16 0
BBX 15 23 1 -3
BITMAP
07C0
1FF0
3C70
3038
7018
601C
600C
E00C
E00C
E00C
E00C
E00C
E00C
E00C
601C
701C
7038
3878
1FF0
0FF0
0038
001E
000C
ENDCHAR
STARTCHAR 0052
ENCODING 82
SWIDTH 576 0
DWIDTH 16 0
BBX 13 20 2 0
BITMAP
FF00
FFE0
E1F0
E070
E038
E038
E038
E038
E030
E0F0
FFE0
FF80
E1C0
E0C0
E0E0
E060
E070
E030
E038
E018
ENDCHAR
STARTCHAR 0053
ENCODING 83
SWIDTH 576 0
DWIDTH 16 0
BBX 13 20 2 0
BITMAP
0F80
3FE0
78F0
6038
E038
E018
E000
7000
7C00
1F80
0FE0
01F0
0078
0038
C018
C018
E038
7078
3FF0
1FC0
ENDCHAR
STARTCHAR 0054
ENCODING 84
SWIDTH 576 0
DWIDTH 16 0
BBX 15 20 1 0
BITMAP
FFFE
FFFE
0380
0380
0380
0380
0380
0380
0380
0380
0380
0380
0380
0380
0380
0380
0380
0380
0380
0380
ENDCHAR
STARTCHAR 0055
ENCODING 85
SWIDTH 576 0
DWIDTH 16 0
BBX 13 20 2 0
BITMAP
C038
C038
C038
C038
C038
C038
C038
C038
C038
C038
C038
C038
C038
C038
C038
E038
E070
70F0
3FE0
1F80
ENDCHAR
STARTCHAR 0056
ENCODING 86
SWIDTH 576 0
DWIDTH 16 0
BBX 15 20 1 0
BITMAP
E00E
E00C
601C
701C
7018
3038
3838
3830
1870
1870
1C60
0C60
0CE0
0EC0
0EC0
07C0
0780
0780
0380
0380
ENDCHAR
STARTCHAR 0057
ENCODING 87
SWIDTH 576 0
DWIDTH 16 0
BBX 15 20 1 0
BITMAP
C386
E386
E38E
E38E
E38E
66CC
66CC
66CC
66CC
66CC
66CC
7C7C
7C7C
3C78
3C78
3C78
3C78
3838
3838
3838
ENDCHAR
STARTCHAR 0058
ENCODING 88
SWIDTH 576 0
DWIDTH 16 0
BBX 15 20 1 0
BITMAP
E00E
701C
3838
3838
1C70
1C70
0EE0
06C0
07C0
0380
0380
07C0
06C0
0EE0
1C70
1C70
3838
3818
701C
E00E
ENDCHAR
STARTCHAR 0059
ENCODING 89
SWIDTH 576 0
DWIDTH 16 0
BBX 14 20 1 0
BITMAP
E00C
E01C
7018
7038
3830
3870
1C60
1CE0
0CC0
0FC0
0780
0780
0300
0300
0300
0300
0300
0300
0300
0300
ENDCHAR
STARTCHAR 005A
ENCODING 90
SWIDTH 576 0
DWIDTH 16 0
BBX 13 20 2 0
BITMAP
FFF0
FFF0
0070
0060
00E0
01C0
01C0
0380
0300
0700
0E00
0C00
1C00
3800
3800
7000
6000
E000
FFF8
FFF8
ENDCHAR
STARTCHAR 005B
ENCODING 91
SWIDTH 576 0
DWIDTH 16 0
BBX 5 27 6 -4
BITMAP
F8
F8
C0
C0
C0
C0
C0
C0
C0
C0
C0
C0
C0
C0
C0
C0
C0
C0
C0
C0
C0
C0
C0
C0
C0
F8
F8
ENDCHAR
STARTCHAR 005C
ENCODING 92
SWIDTH 576 0
DWIDTH 16 0
BBX 11 22 3 -2
BITMAP
E000
6000
6000
7000
3000
3000
1800
1800
1C00
0C00
0C00
0E00
0600
0700
0300
0300
0380
0180
0180
00C0
00C0
00E0
ENDCHAR
STARTCHAR 005D
ENCODING 93
SWIDTH 576 0
DWIDTH 16 0
BBX 6 27 5 -4
BITMAP
FC
FC
1C
1C
1C
1C
1C
1C
1C
1C
1C
1C
1C
1C
1C
1C
1C
1C
1C
1C
1C
1C
1C
1C
1C
FC
FC
ENDCHAR
STARTCHAR 005E
ENCODING 94
SWIDTH 576 0
DWIDTH 16 0
BBX 10 11 3 9
BITMAP
0C00
0E00
0E00
1F00
1B00
3B00
3380
7180
61C0
60C0
E0C0
ENDCHAR
STARTCHAR 005F
ENCODING 95
SWIDTH 576 0
DWIDTH 16 0
BBX 13 2 2 -2
BITMAP
FFF8
FFF8
ENDCHAR
STARTCHAR 0060
ENCODING 96
SWIDTH 576 0
DWIDTH 16 0
BBX 5 4 6 16
BITMAP
E0
70
30
18
ENDCHAR
STARTCHAR 0061
ENCODING 97
SWIDTH 576 0
DWIDTH 16 0
BBX 13 15 2 0
BITMAP
0F80
3FE0
70E0
6070
0070
0030
0FF0
3FF0
7030
E030
E030
E070
F0F0
7FF0
3F38
ENDCHAR
STARTCHAR 0062
ENCODING 98
SWIDTH 576 0
DWIDTH 16 0
BBX 13 21 2 0
BITMAP
E000
E000
E000
E000
E000
E000
E780
FFE0
F8F0
E070
E030
E038
E038
E038
E038
E038
E030
E070
F0F0
FFE0
EFC0
ENDCHAR
STARTCHAR 0063
ENCODING 99
SWIDTH 576 0
DWIDTH 16 0
BBX 13 15 2 0
BITMAP
0F80
3FE0
78F0
7030
E038
E000
E000
C000
C000
E000
E038
6030
7070
3FE0
1FC0
ENDCHAR
STARTCHAR 0064
ENCODING 100
SWIDTH 576 0
DWIDTH 16 0
BBX 12 21 2 0
BITMAP
0030
0030
0030
0030
0030
0030
0F30
3FB0
78F0
7070
E030
E030
C030
C030
C030
E030
E030
6070
7070
3FF0
1FB0
ENDCHAR
STARTCHAR 0065
ENCODING 101
SWIDTH 576 0
DWIDTH 16 0
BBX 13 15 2 0
BITMAP
0F80
1FE0
78F0
7070
E030
E038
FFF8
FFF8
C000
E000
E000
6000
7838
3FF0
1FC0
ENDCHAR
STARTCHAR 0066
ENCODING 102
SWIDTH 576 0
DWIDTH 16 0
BBX 13 21 2 0
BITMAP
03F8
07F8
0700
0E00
0E00
0E00
FFF0
FFF0
0E00
0E00
0E00
0E00
0E00
0E00
0E00
0E00
0E00
0E00
0E00
0E00
0E00
ENDCHAR
STARTCHAR 0067
ENCODING 103
SWIDTH 576 0
DWIDTH 16 0
BBX 12 21 2 -6
BITMAP
0F30
3FF0
78F0
7070
E030
E030
C030
C030
C030
E030
E030
6070
7070
3FF0
1FB0
0030
0070
6070
71E0
3FC0
0F00
ENDCHAR
STARTCHAR 0068
ENCODING 104
SWIDTH 576 0
DWIDTH 16 0
BBX 12 21 2 0
BITMAP
E000
E000
E000
E000
E000
E000
E7C0
EFE0
F8F0
F070
E030
E030
E030
E030
E030
E030
E030
E030
E030
E030
E030
ENDCHAR
STARTCHAR 0069
ENCODING 105
SWIDTH 576 0
DWIDTH 16 0
BBX 12 20 3 0
BITMAP
0600
0E00
0600
0000
0000
FE00
FE00
FE00
0600
0600
0600
0600
0600
0600
0600
0600
0600
0600
FFF0
FFF0
ENDCHAR
STARTCHAR 006A
ENCODING 106
SWIDTH 576 0
DWIDTH 16 0
BBX 9 26 3 -6
BITMAP
0300
0380
0300
0000
0000
7F00
7F00
7F00
0300
0300
0300
0300
0300
0300
0300
0300
0300
0300
0300
0300
0300
0300
0700
0F00
FE00
F800
ENDCHAR
STARTCHAR 006B
ENCODING 107
SWIDTH 576 0
DWIDTH 16 0
BBX 13 21 2 0
BITMAP
E000
E000
E000
E000
E000
E000
E070
E0E0
E1C0
E380
E700
EE00
FE00
FE00
F700
E380
E1C0
E1E0
E0E0
E070
E038
ENDCHAR
STARTCHAR 006C
ENCODING 108
SWIDTH 576 0
DWIDTH 16 0
BBX 12 21 3 0
BITMAP
FE00
FE00
0600
0600
0600
0600
0600
0600
0600
0600
0600
0600
0600
0600
0600
0600
0600
0600
0600
FFF0
FFF0
ENDCHAR
STARTCHAR 006D
ENCODING 109
SWIDTH 576 0
DWIDTH 16 0
BBX 14 15 1 0
BITMAP
EE78
FFFC
E39C
E38C
E38C
E38C
E38C
E38C
E38C
E38C
E38C
E38C
E38C
E38C
E38C
ENDCHAR
STARTCHAR 006E
ENCODING 110
SWIDTH 576 0
DWIDTH 16 0
BBX 12 15 2 0
BITMAP
E7C0
EFE0
F8F0
F070
E030
E030
E030
E030
E030
E030
E030
E030
E030
E030
E030
ENDCHAR
STARTCHAR 006F
ENCODING 111
SWIDTH 576 0
DWIDTH 16 0
BBX 13 15 2 0
BITMAP
0F80
3FC0
78E0
6070
E038
C038
C038
C038
C038
C038
E038
E030
7070
3FE0
1FC0
ENDCHAR
STARTCHAR 0070
ENCODING 112
SWIDTH 576 0
DWIDTH 16 0
BBX 13 21 2 -6
BITMAP
E780
FFE0
F9E0
E070
E030
E038
E038
E038
E038
E038
E030
E070
F0F0
FFE0
EFC0
E000
E000
E000
E000
E000
E000
ENDCHAR
STARTCHAR 0071
ENCODING 113
SWIDTH 576 0
DWIDTH 16 0
BBX 12 21 2 -6
BITMAP
0F30
3FF0
78F0
7070
E030
E030
C030
C030
C030
E030
E030
6030
7070
3FF0
1FB0
0030
0030
0030
0030
0030
0030
ENDCHAR
STARTCHAR 0072
ENCODING 114
SWIDTH 576 0
DWIDTH 16 0
BBX 11 15 4 0
BITMAP
E3E0
EFC0
FFC0
F000
F000
E000
E000
E000
E000
E000
E000
E000
E000
E000
E000
ENDCHAR
STARTCHAR 0073
ENCODING 115
SWIDTH 576 0
DWIDTH 16 0
BBX 13 15 2 0
BITMAP
0F80
3FE0
78F0
7030
6030
7000
3E00
1FC0
03F0
0070
E038
E038
7070
3FF0
1FC0
ENDCHAR
STARTCHAR 0074
ENCODING 116
SWIDTH 576 0
DWIDTH 16 0
BBX 12 18 2 0
BITMAP
0C00
0C00
0C00
FFF0
FFF0
0C00
0C00
0C00
0C00
0C00
0C00
0C00
0C00
0C00
0C00
0E00
07F0
03F0
ENDCHAR
STARTCHAR 0075
ENCODING 117
SWIDTH 576 0
DWIDTH 16 0
BBX 12 15 2 0
BITMAP
E030
E030
E030
E030
E030
E030
E030
E030
E030
E030
E030
6070
70F0
3FB0
1F30
ENDCHAR
STARTCHAR 0076
ENCODING 118
SWIDTH 576 0
DWIDTH 16 0
BBX 14 15 1 0
BITMAP
E00C
601C
7018
3018
3838
3830
1870
1C60
0C60
0CE0
06C0
06C0
0780
0380
0300
ENDCHAR
STARTCHAR 0077
ENCODING 119
SWIDTH 576 0
DWIDTH 16 0
BBX 15 15 1 0
BITMAP
C106
C386
C386
C38C
628C
66CC
66CC
66CC
64C8
3C78
3C78
3C78
3878
3830
1830
ENDCHAR
STARTCHAR 0078
ENCODING 120
SWIDTH 576 0
DWIDTH 16 0
BBX 13 15 2 0
BITMAP
E038
6070
7070
38E0
1DC0
0D80
0F80
0700
0F80
0D80
1DC0
38E0
7070
7070
E038
ENDCHAR
STARTCHAR 0079
ENCODING 121
SWIDTH 576 0
DWIDTH 16 0
BBX 15 21 1 -6
BITMAP
E00E
E01C
701C
7018
3838
3830
1870
1C70
0C60
0EE0
06C0
07C0
0780
0380
0300
0300
0700
0E00
1E00
7C00
7000
ENDCHAR
STARTCHAR 007A
ENCODING 122
SWIDTH 576 0
DWIDTH 16 0
BBX 13 15 2 0
BITMAP
FFF0
FFF0
0070
00E0
01C0
0380
0380
0700
0E00
1C00
3800
3800
7000
FFF8
FFF8
ENDCHAR
STARTCHAR 007B
ENCODING 123
SWIDTH 576 0
DWIDTH 16 0
BBX 10 27 4 -5
BITMAP
0080
0380
0700
0600
0E00
0E00
0E00
0E00
0E00
0E00
0C00
1C00
3800
F000
F800
1C00
0C00
0E00
0E00
0E00
0E00
0E00
0E00
0600
0700
03C0
0180
ENDCHAR
STARTCHAR 007C
ENCODING 124
SWIDTH 576 0
DWIDTH 16 0
BBX 2 25 7 -5
BITMAP
C0
C0
C0
C0
C0
C0
C0
C0
C0
C0
C0
C0
C0
C0
C0
C0
C0
C0
C0
C0
C0
C0
C0
C0
C0
ENDCHAR
STARTCHAR 007D
ENCODING 125
SWIDTH 576 0
DWIDTH 16 0
BBX 10 27 4 -5
BITMAP
4000
F000
3800
1800
1C00
1C00
1C00
1C00
1C00
1C00
1C00
0C00
0700
03C0
07C0
0E00
0C00
1C00
1C00
1C00
1C00
1C00
1C00
1800
3800
F000
6000
ENDCHAR
STARTCHAR 007E
ENCODING 126
SWIDTH 576 0
DWIDTH 16 0
BBX 15 6 1 5
BITMAP
3C00
7E06
E786
C3FC
80FC
0020
ENDCHAR
ENDFONT
